<svg xmlns="http://www.w3.org/2000/svg" xml:space="preserve" width="121.7" height="128"><g fill="none" stroke="#000" stroke-linecap="round" stroke-width="2.3"><path stroke-linejoin="round" d="M72 35c-9-4-13 0-16-1l-10-5c-4-2-4 3-2 5 8 7 17 8 25 25l29-6-15-30-9-16c-3-5-7-3-5 2l5 14-9-18c-4-8-7-2-5 4l7 15-9-16c-4-8-10-6-6 2l8 16-9-15c-5-7-7-2-4 3l9 20"/><path d="M33 20c-6 3-14 12-15 19m5 9c2-5 4-9 9-12M16 99l49-13a9 9 0 0 0 6-11l-4-13a3 3 0 0 1 2-3l30-6a3 3 0 0 1 3 2l5 22a24 24 0 0 1-15 28l-35 14-38-1z"/><path d="m11 118 44 1c7 2 13 3 23 0h41a2 2 0 0 1 1 2l-1 4a2 2 0 0 1-2 2l-101-1a4 4 0 0 1-4-3l-1-3a1 1 0 0 1 0-2z"/><path d="M11 120 1 61a3 3 0 0 1 3-4h63m37 41 5 20M47 60h4"/></g><path d="M98 102a24 24 0 0 1-6 3l-35 14-38-1-3-19 49-13a9 9 0 0 0 6-11l-4-12-58 1-1 1 10 53 38 1c5 2 11 2 19 0h28z"/></svg>