<svg xmlns="http://www.w3.org/2000/svg" viewBox="0 0 121.13 127.85"><g fill="none" stroke="currentColor" stroke-linecap="round" stroke-width="2"><path d="M72.041 34.854c-9-4-13 0-16-1l-10-5c-4-2-4 3-2 5 8 7 17 8 25 25l29-6-15-30-9-16c-3-5-7-3-5 2l5 14-9-18c-4-8-7-2-5 4l7 15-9-16c-4-8-10-6-6 2l8 16-9-15c-5-7-7-2-4 3l9 20" stroke-linejoin="round"/><path d="M33.041 19.854c-6 3-14 12-15 19m5 9c2-5 4-9 9-12m-16 63 49-13a9 9 0 0 0 6-11l-4-13a3 3 0 0 1 2-3l30-6a3 3 0 0 1 3 2l5 22a24 24 0 0 1-15 28l-35 14-38-1z"/><path d="m11.041 117.854 44 1c7 2 13 3 23 0h41c.61 0 1.369.625 1 2l-1 4c-.293 1.19-.92 1.912-2 2l-101-1c-2 0-3.075-.901-4-3-.79-1.67-1-3.208-1-5z"/><path d="m11.041 118.854-10-58c-.291-2.128 1-4 3-4h63m36.222 39.851 5.778 22.15m-62-59h4"/></g><path d="M98.041 101.85a23.999 23.999 0 0 1-6 3l-35 14-38-1-3-19 49-13a9 9 0 0 0 6-11l-4-12-58 1c-1.257-.01-1.07.506-1 1l10 53 38 1c5 2 11 2 19 0h28z"/></svg>